<?xml version="1.0" encoding="utf-8"?>
<!-- Generator: Adobe Illustrator 24.2.3, SVG Export Plug-In . SVG Version: 6.00 Build 0)  -->
<svg version="1.1" id="Layer_1" xmlns="http://www.w3.org/2000/svg" xmlns:xlink="http://www.w3.org/1999/xlink" x="0px" y="0px"
	 viewBox="0 0 60.04 57.33" style="enable-background:new 0 0 60.04 57.33;" xml:space="preserve">
<style type="text/css">
	.st0{opacity:0.98;}
</style>
<g class="st0">
	<path d="M102.29,33.47c0-2.25,0.03-4.51-0.01-6.76c-0.03-1.7,0.33-3.18,0.32-4.87c-0.01-2.01,0.35-2.87,0.49-4.87
		c0.19-2.59,0.52-5.73,1.93-7.96c0.97-1.53,2.23-2.58,3.79-3.38c0.21-0.11,0.45-0.2,0.62-0.36c1.06-0.97,1.97-1.61,3.2-1.29
		c2.37,0.62,3.55,0.6,5.1,0.47c2.52-0.22,5.02-0.73,7.55-0.89c2.17-0.14,4.52-0.72,6.7-0.68c1.24,0.02,2.48,0.03,3.72,0.07
		c1.86,0.05,3.72,0.09,5.57,0.19c1.21,0.07,2.42,0.2,3.61,0.38c0.43,0.06,0.82,0.37,1.25,0.51c0.55,0.18,1.13,0.31,1.69,0.44
		c1.09,0.26,2.19,0.49,3.28,0.75c0.44,0.11,0.88,0.22,1.28,0.42c0.35,0.17,0.63,0.47,0.95,0.7c0.25,0.18,0.48,0.41,0.76,0.5
		c0.74,0.24,1.27,0.72,1.72,1.34c1.38,1.9,1.95,4.05,2.03,6.35c0.04,1.24,0.2,2.49,0.07,3.7c-0.09,0.82,0.11,1.52,0.19,2.28
		c0.11,0.99-0.13,2.02-0.17,3.04c-0.02,0.54,0.08,1.09,0.13,1.63c0.02,0.16,0.12,0.32,0.12,0.48c-0.03,1.62-0.19,3.25-0.09,4.86
		c0.11,1.72-0.22,3.39-0.41,5.07c-0.17,1.52-0.21,3.03-0.27,4.54c0,0.07,0,0.15-0.04,0.21c-0.78,1.09-0.43,2.34-0.52,3.54
		c-0.07,0.84-0.31,1.68-0.5,2.51c-0.22,0.92-0.39,1.86-0.73,2.73c-0.55,1.4-1.21,2.74-2.98,3.01c-0.4,0.06-0.72,0.57-1.13,0.69
		c-0.83,0.23-1.69,0.34-2.55,0.48c-1.55,0.26-3.1,0.53-4.65,0.74c-0.78,0.11-1.58,0.02-2.36,0.15c-1.17,0.18-2.34-0.02-3.54,0.34
		c-0.89,0.27-1.97-0.06-2.96-0.11c-0.28-0.01-0.56,0.03-0.84,0.06c-1.7,0.15-3.37,0.41-5.1,0c-1.12-0.26-2.34-0.07-3.51-0.06
		c-0.88,0-1.77,0.03-2.65,0.03c-0.51,0-1.03-0.08-1.54-0.05c-0.27,0.02-0.52,0.24-0.79,0.27c-1.93,0.27-3.85,0.56-5.81,0.13
		c-0.73-0.16-1.44-0.22-2.16-0.59c-0.62-0.32-1.47-0.13-2.22-0.23c-2.01-0.26-3.29-1.63-4.54-3.03c-1.49-1.68-2.45-3.72-3.08-5.78
		c-0.64-2.07-0.73-4.33-0.9-6.52c-0.14-1.71-0.03-3.45-0.03-5.17C102.3,33.47,102.29,33.47,102.29,33.47z M113.61,9.68
		c-1.06,0.79-1.88,0.79-2.67,1.87c-0.03,0.63-0.67,1.9-1.14,2.42c-0.38,0.42-0.06,1.26-0.23,1.82c-0.33,1.06-0.59,2.14-0.87,3.21
		c-0.04,0.14-0.05,0.28-0.06,0.42c-0.08,1.07-0.29,0.99-0.37,2.06c-0.02,0.25-0.02,0.51,0,0.76c0.04,0.61,0.11,1.23,0.12,1.84
		c0.01,0.52,0.37,1.04,0.04,1.79c0.11,1.24-0.3,2.03-0.18,3.27c0.06,0.61,0.11,1.23,0.06,1.84c-0.08,0.91-0.3,1.8,0,2.73
		c0.11,0.33-0.05,0.74-0.05,1.12c-0.01,0.81-0.24,1.7,0.04,2.39c0.45,1.1,0.21,2.22,0.46,3.31c0.06,0.27-0.09,0.61-0.16,0.91
		c-0.28,1.24,0.79,2.56,1.37,3.64c0.62,1.16,1.47,2.21,2.67,2.89c0.49,0.28,0.89,0.75,1.4,0.98c0.93,0.42,1.9,0.77,2.88,1.07
		c0.57,0.18,1.19,0.29,1.79,0.32c1.64,0.07,3.3,0.01,4.93,0.15c2.08,0.18,4.15,0.23,6.23,0c1.33-0.15,2.67-0.19,4.01-0.29
		c0,0.02,0,0.05,0,0.07c1.36-0.07,2.71-0.11,4.07-0.21c1.62-0.13,3.23-0.32,4.85-0.46c1.55-0.14,3.02-0.54,4.29-1.48
		c0.24-0.18,0.53-0.39,0.64-0.66c0.44-1.01,2.39-2.3,2.75-3.34c0.82-2.42,1.17-4.93,1.24-7.48c0.09-3.18,0.04-6.52,0-9.7
		c-0.03-2.19-0.48-5.18-0.64-7.37c-0.07-0.95-0.13-1.92-0.37-2.83c-0.29-1.08-0.72-2.13-1.17-3.15c-0.49-1.09-1.76-1.16-2.86-1.94
		c-0.39-0.28-0.67-0.7-1.06-0.96c-0.86-0.57-1.35-2.33-2.52-2.33c-0.99,0-2-0.15-2.96-0.39c-0.61-0.15-1.57,0.25-1.57,0.25
		c-0.09,0.15-0.45,0.2-0.67,0.17c-0.73-0.09-1.45-0.24-2.17-0.36c-0.43-0.07-0.86-0.18-1.29-0.19c-0.72-0.03-1.49,0.15-2.16-0.04
		c-0.94-0.26-1.82-0.65-2.84-0.45c-0.35,0.07-1.2,0.21-1.58,0.13c-0.23-0.05-0.16,0.27-0.39,0.27c-1.79-0.01-4.56,0.22-6.35,0.21
		c-0.57,0-1.15-0.01-1.7-0.13c-0.87-0.18-1.67-0.03-2.51,0.17c-0.93,0.23-1.35,0.15-2.31,0.3"/>
	<path d="M2.12,40.43c0-2.66-0.03-5.31,0.01-7.97c0.05-3.28,0.11-6.56,0.25-9.83c0.1-2.32,0.24-4.64,0.56-6.94
		c0.35-2.51,1.14-4.84,2.82-6.91C6.92,7.35,8,5.93,9.64,5.05c0.18-0.1,0.36-0.22,0.56-0.27c3.63-1.02,7.29-1.59,11.09-1.27
		c1.46,0.12,2.96-0.2,4.44-0.21c2.39-0.02,4.79,0.08,7.18,0.09c1.8,0.01,3.6-0.14,5.39-0.06c3.38,0.16,6.76,0.37,10.12,0.71
		c1.15,0.12,2.34,0.56,3.34,1.15c0.73,0.43,1.19,1.34,1.75,2.04c0.2,0.24,0.31,0.58,0.55,0.75c1.43,1.04,1.86,2.52,2.08,4.18
		c0.11,0.86,0.49,1.69,0.72,2.53c0.24,0.89,0.46,1.79,0.68,2.69c0.33,1.35,0.13,2.64-0.27,3.97c-0.36,1.19-0.48,2.47-0.63,3.71
		c-0.14,1.13-0.2,2.27-0.25,3.4c-0.05,1.14-0.09,2.28-0.07,3.42c0.05,2.94,0.37,5.87-0.11,8.8c-0.18,1.1-0.21,2.22-0.39,3.32
		c-0.13,0.79-0.44,1.55-0.58,2.34c-0.36,1.96-1.64,3.43-2.81,4.87c-0.93,1.15-2.12,2.22-3.79,2.38c-0.35,0.03-0.66,0.32-1.01,0.39
		c-0.33,0.07-0.68,0.01-1.03,0.01c-0.17,0-0.38-0.05-0.5,0.03c-0.97,0.63-2.03,0.51-3.08,0.37c-0.7-0.09-1.39-0.38-2.09-0.42
		c-0.65-0.03-1.32,0.27-1.96,0.21c-0.99-0.09-2.07,0.23-2.96-0.49c-0.08-0.06-0.18-0.12-0.28-0.13c-1.46-0.12-2.81-0.76-4.35-0.63
		c-1.52,0.13-3.08-0.15-4.62-0.21c-0.56-0.02-1.12,0.06-1.68,0.09c-0.07,0.01-0.15,0.07-0.22,0.08c-0.91,0.04-1.82,0.06-2.73,0.13
		c-0.6,0.04-1.17-0.04-1.78,0.38c-0.48,0.33-1.29,0.3-1.94,0.26c-1.27-0.08-2.53-0.27-3.79-0.41c-0.18-0.02-0.38-0.01-0.54,0.05
		c-1.72,0.65-3.3,0.1-4.83-0.63c-1.24-0.59-2.44-1.26-3.64-1.91c-0.66-0.36-0.93-0.98-1.19-1.67c-0.28-0.77-0.75-1.46-1.08-2.21
		c-0.27-0.61-0.55-1.25-0.67-1.9c-0.28-1.51-0.46-3.04-0.68-4.56C2.03,40.43,2.08,40.43,2.12,40.43z M28.19,47.29
		c1.48-0.09,3.02-0.26,4.55-0.27c3.99-0.03,7.98,0.03,11.96,0.02c0.79,0,1.72,0.11,2.34-0.25c1.04-0.59,1.86-1.38,2.16-2.82
		c0.59-2.87,0.47-5.76,0.63-8.63c0.09-1.55-0.1-3.12-0.27-4.67c-0.21-1.85-0.07-3.72-0.39-5.57c-0.33-1.9-0.51-3.82-0.71-5.74
		c-0.19-1.82-0.52-3.59-1.19-5.32C46.48,12,45,10.79,43.06,9.99c-0.58-0.24-1.22-0.47-1.66-0.88c-0.47-0.44-0.91-0.6-1.52-0.58
		c-1.76,0.06-3.51,0.19-5.26-0.26c-0.74-0.19-1.57-0.24-2.32-0.11c-1.55,0.26-3.05,0.74-4.66,0.51c-1.62-0.24-3.25-0.33-4.88-0.49
		c-0.23-0.02-0.47-0.06-0.7-0.07c-1.68-0.06-3.35-0.1-5.03-0.17c-0.15-0.01-0.29-0.1-0.43-0.16c-0.66-0.31-2.68,0.09-3.17,0.63
		c-0.7,0.78-1.44,1.54-2.1,2.35c-0.35,0.43-0.59,0.96-0.83,1.46c-0.32,0.67-0.6,1.36-0.87,2.06c-0.11,0.28-0.22,0.57-0.24,0.87
		c-0.07,0.93,0.02,1.89-0.16,2.8c-0.52,2.67-0.65,5.36-0.54,8.06c0.05,1.19,0.29,2.36-0.19,3.52C8.2,30.29,8.38,31,8.64,31.76
		c0.22,0.65,0.2,1.39,0.24,2.1C8.89,34.1,8.6,34.49,8.7,34.6c0.44,0.51,0.4,1.07,0.41,1.69c0.03,1.87,0.23,3.74,0.18,5.6
		c-0.03,1,0.18,1.86,0.84,2.49c2.13,2,4.75,2.71,7.62,2.57c1.16-0.05,2.32-0.17,3.48-0.12C23.53,46.92,25.83,47.12,28.19,47.29z"/>
	<path d="M-220.4,35.29c0-3.11,0.01-6.21-0.01-9.32c0-0.97-0.16-1.95-0.09-2.92c0.14-1.94,0.4-3.87,0.57-5.81
		c0.07-0.81-0.02-1.63,0.01-2.44c0.06-1.66,0.06-3.33,0.25-4.98c0.08-0.72,0.56-1.39,0.87-2.09c1.08-2.47,2.96-4.11,5.52-4.82
		c1.49-0.42,3.13-0.75,4.64-0.57c1.55,0.18,2.93-0.31,4.39-0.37c1.8-0.07,3.61-0.09,5.41-0.16c2.7-0.1,5.41-0.21,8.11-0.31
		c0.31-0.01,0.63,0.02,0.94,0.05c2.16,0.17,4.31,0.51,6.47,0.47c2.12-0.04,4.19,0.19,6.26,0.48c0.81,0.11,1.58,0.49,2.37,0.73
		c0.95,0.29,1.94,0.47,2.85,0.85c1.21,0.5,2.52,0.95,3.48,1.78c1.1,0.95,2.08,2.11,2.31,3.75c0.12,0.88,0.65,1.75,1.14,2.53
		c0.84,1.35,0.88,2.87,1.12,4.35c0.07,0.43,0.03,0.88,0.06,1.33c0.1,1.56-0.48,2.97-0.9,4.42c-0.08,0.27-0.09,0.57-0.08,0.86
		c0.04,0.79,0.12,1.5-0.59,2.16c-0.28,0.26-0.05,1.03-0.13,1.56c-0.08,0.46-0.3,0.88-0.41,1.34c-0.13,0.55-0.31,1.12-0.26,1.66
		c0.23,2.41-0.08,4.79-0.37,7.17c-0.09,0.74,0.11,1.54,0.29,2.29c0.22,0.94,0.67,1.84,0.82,2.79c0.12,0.78-0.09,1.61-0.09,2.42
		c-0.01,1.24-0.34,2.36-0.96,3.42c-0.57,0.99-1.22,1.88-2.48,1.94c-1.47,0.07-2.64,1.06-4.04,1.31c-1.93,0.35-3.86,0.75-5.81,0.9
		c-1.46,0.11-2.94-0.18-4.42-0.22c-0.83-0.02-1.67,0.1-2.5,0.15c-0.59,0.03-1.19,0-1.77,0.09c-0.92,0.15-1.82,0.39-2.73,0.57
		c-0.61,0.13-1.22,0.32-1.83,0.32c-1.35,0.01-2.7-0.05-4.05-0.12c-3.1-0.16-6.22-0.21-9.3-0.56c-2.64-0.3-5.29-0.9-7.61-2.25
		c-1.82-1.06-3.58-2.32-4.65-4.29c-0.57-1.04-1.42-1.88-1.83-3.06c-0.73-2.12-0.99-4.3-1.12-6.51c-0.02-0.29,0-0.58,0-0.87
		C-220.52,35.29-220.46,35.29-220.4,35.29z M-183.87,48.1c0.01,0.06,0.02,0.12,0.02,0.17c1.73-0.33,3.46-0.72,5.2-0.96
		c2.1-0.29,3.41-1.48,4.25-3.33c0.36-0.79,0.79-1.55,1.13-2.34c0.39-0.92,0.85-1.83,1.03-2.8c0.25-1.34,0.28-2.72,0.39-4.09
		c0.11-1.42,0.2-2.83,0.3-4.25c0.02-0.29,0.14-0.57,0.13-0.85c-0.12-1.84-0.25-3.68-0.59-5.51c-0.34-1.84-0.34-3.75-0.53-5.62
		c-0.05-0.49-0.22-0.97-0.37-1.44c-0.69-2.05-1.45-4.07-2.07-6.14c-0.57-1.92-1.34-3.58-3.27-4.54c-1.02-0.51-2-0.88-3.15-0.84
		c-1.23,0.04-2.46,0.07-3.69,0c-0.93-0.05-1.89-0.15-2.77-0.44c-1.2-0.4-2.4-0.16-3.59-0.19c-1.44-0.03-2.87-0.05-4.31,0.01
		c-0.91,0.04-1.84,0.41-2.72,0.32c-2.18-0.22-4.18,0.38-6.18,1.05c-0.45,0.15-0.92,0.28-1.32,0.53c-0.81,0.51-1.54,1.14-2.37,1.62
		c-0.79,0.46-1.83,0.62-1.78,1.86c0,0.07-0.09,0.13-0.12,0.2c-0.39,0.85-1.3,1.42-1.38,2.46c-0.01,0.11-0.16,0.2-0.22,0.32
		c-0.61,1.15-1.22,2.29-1.8,3.45c-0.09,0.17-0.01,0.43,0.01,0.65c0.06,0.64,0.18,1.29,0.16,1.93c-0.01,0.56-0.22,1.11-0.26,1.68
		c-0.11,1.55-0.23,3.1-0.24,4.65c-0.01,0.84,0.2,1.67,0.31,2.51c0.12,0.89,0.41,1.81,0.32,2.68c-0.16,1.63-0.41,3.23,0.1,4.85
		c0.12,0.38,0.07,0.82,0.11,1.23c0.07,0.65-0.04,1.4,0.25,1.93c0.8,1.42,0.66,2.99,0.86,4.49c0.15,1.13,0.08,2.4,1.16,3.03
		c1.63,0.94,3.41,1.62,5.29,1.86c2.09,0.27,4.2,0.43,6.3,0.61c0.97,0.08,1.95,0.21,2.91,0.14c1.49-0.11,2.97-0.44,4.46-0.54
		C-189.23,48.28-186.54,48.21-183.87,48.1z"/>
	<path d="M130.73,45.02c-0.42,0.05-0.68,0.28-0.75,0.85c-0.1,0.75-1.11,1.19-1.86,0.99c-0.56-0.15-1.15-0.23-1.73-0.25
		c-1.41-0.03-2.82-1.57-2.84-3.01c-0.03-2.6-0.13-5.2-0.22-7.8c-0.1-2.67-0.22-5.35-0.34-8.02c-0.05-1.07-0.1-2.14-0.17-3.21
		c-0.07-1.15,0.51-1.96,1.38-2.59c0.14-0.11,0.45-0.03,0.67,0.02c1.11,0.25,2.24,0.45,3.32,0.8c0.8,0.26,1.54,0.73,2.39,1.14
		c0.74-0.33,1.64-0.83,2.6-1.15c0.75-0.26,1.57-0.4,2.37-0.43c1.43-0.05,2.87-0.09,4.29,0.07c1.22,0.14,2.31,0.7,3.36,1.42
		c0.79,0.55,1.25,1.05,1.58,1.98c0.41,1.14,1.26,2.12,1.9,3.18c0.08,0.14,0.06,0.36,0.06,0.53c-0.04,0.97-0.07,1.95-0.13,2.92
		c-0.03,0.44-0.03,0.92-0.19,1.32c-0.23,0.58-0.29,1.11-0.23,1.74c0.15,1.49,0.21,3,0.18,4.5c-0.03,1.43-0.23,2.85-0.36,4.27
		c-0.01,0.1-0.05,0.19-0.03,0.28c0.13,0.72-0.03,0.95-0.88,1.09c-0.95,0.16-1.8,0.14-2.72-0.04c-0.48-0.1-1,0.06-1.5,0.01
		c-0.24-0.02-0.53-0.19-0.67-0.38c-0.73-0.94-1.04-1.97-0.96-3.2c0.19-2.91,0.33-5.84,0.36-8.76c0.01-1.37-0.2-2.77-0.47-4.12
		c-0.29-1.47-1.99-2.37-3.61-2.19c-1.59,0.18-2.83,0.79-3.56,2.27c-0.08,0.17-0.19,0.37-0.34,0.46c-1.01,0.58-1.03,1.55-1.06,2.54
		c-0.07,2.36-0.42,4.71-0.16,7.09C130.61,41.21,130.63,43.07,130.73,45.02z"/>
	<path d="M113.32,41.85c0-1.92,0.04-4.02-0.01-6.12c-0.07-2.75-0.2-5.5-0.33-8.24c-0.02-0.4-0.12-0.81-0.25-1.19
		c-0.48-1.39,0.11-2.57,0.79-3.68c0.2-0.32,0.82-0.53,1.26-0.54c1.24-0.03,2.5,0.02,3.74,0.15c0.65,0.07,1.28,0.34,1.9,0.58
		c0.12,0.05,0.2,0.39,0.17,0.58c-0.07,0.44-0.36,0.85,0.09,1.31c0.16,0.16,0.02,0.6,0.03,0.91c0.02,0.53,0.05,1.07,0.09,1.6
		c0.01,0.21,0.12,0.44,0.07,0.63c-0.33,1.31,0.13,2.59,0.12,3.88c0,0.35-0.1,0.7-0.2,1.04c-0.2,0.67-0.45,1.32-0.65,1.98
		c-0.03,0.11,0.02,0.31,0.1,0.38c0.47,0.39,0.33,0.86,0.32,1.37c-0.02,1.36,0.08,2.71,0.12,4.07c0.01,0.43-0.05,0.86,0.01,1.28
		c0.08,0.57,0.26,1.13,0.37,1.71c0.1,0.54,0.23,1.08,0.24,1.62c0.02,1.06-0.62,1.49-1.56,1.01c-0.56-0.29-0.98-0.27-1.41,0.17
		c-0.48,0.48-1,0.25-1.57,0.14c-1.04-0.2-1.84-0.73-2.56-1.45C113.34,44.2,113.45,43.08,113.32,41.85z"/>
	<path d="M113.01,15.23c0-0.44-0.08-0.87,0.01-1.25c0.24-1.01,1.2-1.47,2.4-1.25c0.79,0.15,1.59,0.26,2.39,0.37
		c0.16,0.02,0.35,0.04,0.48-0.03c0.42-0.21,0.67-0.08,0.88,0.3c0.09,0.16,0.22,0.33,0.37,0.42c0.64,0.37,1.12,0.78,0.88,1.64
		c-0.06,0.2,0.18,0.47,0.26,0.71c0.3,0.8,0.06,1.59-0.06,2.38c-0.01,0.08-0.07,0.21-0.14,0.23c-0.72,0.2-1.45,0.35-2.16,0.56
		c-0.56,0.16-1.18,0.27-1.62,0.61c-1.03,0.78-1.86,0.81-2.38-0.39C113.73,18.17,112.71,16.86,113.01,15.23z"/>
	<path d="M42.55,26.02c0,0.02-0.05,0.16-0.02,0.27c0.11,0.4,0.46,0.94,0.32,1.16c-0.4,0.61-0.95,1.17-1.54,1.61
		c-0.95,0.71-1.97,1.31-2.97,1.95c-0.24,0.15-0.47,0.37-0.73,0.43c-0.99,0.22-1.49,1.05-1.96,1.75c-0.49,0.73-1.16,1.1-1.85,1.44
		c-0.78,0.38-1.54,0.72-1.98,1.56c-0.37,0.69-2.57,1.44-3.35,1.29c-0.29-0.06-0.66,0-0.92,0.14c-0.62,0.33-1.17,0.78-1.78,1.11
		c-0.44,0.23-0.94,0.34-1.41,0.52c-0.24,0.1-0.5,0.22-0.68,0.39c-0.45,0.44-1.89,0.81-2.48,0.55c-0.16-0.07-0.37-0.25-0.4-0.4
		c-0.26-1.43-0.65-2.86-0.68-4.29c-0.07-3.85-0.58-7.64-1.04-11.45c-0.17-1.39-0.08-2.8-0.12-4.21c-0.01-0.28-0.05-0.57-0.14-0.83
		c-0.37-1-0.12-1.43,0.75-1.98c0.68-0.43,1.53-0.7,1.86-1.62c0.2-0.57,0.73-0.24,1.08-0.08c0.93,0.44,1.85,0.91,2.75,1.4
		c1.16,0.63,2.33,1.25,3.43,1.97c1.69,1.12,3.57,1.77,5.45,2.47c1.06,0.4,2.29,0.72,2.86,1.98c0.39,0.86,1.44,0.83,2.15,1.27
		c0.76,0.47,1.55,0.88,2.35,1.28C41.81,25.87,42.16,25.91,42.55,26.02z M22.88,35.72c0.27-0.07,0.4-0.09,0.51-0.14
		c2.01-0.84,3.7-2.32,5.81-2.98c0.05-0.01,0.08-0.06,0.13-0.09c1.27-0.8,2.54-1.61,3.82-2.4c1.25-0.77,2.53-1.48,3.76-2.28
		c0.94-0.62,0.83-1.36-0.2-1.83c-2.85-1.28-5.72-2.5-8.38-4.17c-1.36-0.85-2.88-1.45-4.35-2.1c-0.46-0.2-1.03-0.16-1.63-0.25
		c-0.08,0.81-0.23,1.46-0.18,2.09c0.16,2.14,0.41,4.28,0.58,6.43c0.07,0.82,0.01,1.66,0.02,2.48C22.8,32.21,22.84,33.93,22.88,35.72
		z"/>
	<path d="M-193.05,41.87c-0.7-0.16-1.38-0.21-1.98-0.46c-1.67-0.69-3.31-1.44-4.95-2.21c-0.9-0.42-1.83-0.83-2.64-1.4
		c-2.04-1.43-3.46-3.31-4.29-5.74c-0.82-2.4-0.7-4.82-0.8-7.25c0-0.05,0.01-0.11,0.03-0.15c1.37-3.06,2.45-6.28,5.1-8.62
		c1.72-1.51,3.58-2.56,5.86-2.87c1.78-0.24,3.56-0.62,5.35-0.71c2.07-0.11,4.12,0.25,6.1,0.87c1.28,0.4,2.5,0.96,3.74,1.48
		c0.18,0.07,0.32,0.26,0.47,0.4c0.21,0.2,0.39,0.43,0.62,0.61c0.8,0.64,1.68,1.19,2.4,1.91c0.37,0.37,0.54,1,0.69,1.54
		c0.3,1.15,0.49,2.33,0.8,3.49c0.47,1.78,0.27,3.54-0.11,5.3c-0.06,0.28-0.11,0.59-0.26,0.82c-0.43,0.65-0.69,1.15-0.15,2.01
		c0.32,0.5-0.12,1.49-0.23,2.25c-0.04,0.27-0.13,0.53-0.19,0.79c-0.03,0.13,0.03,0.3-0.03,0.38c-0.69,0.84-0.88,2.1-2.09,2.53
		c-0.23,0.08-0.4,0.34-0.61,0.5c-1.06,0.85-1.84,2.06-3.22,2.53c-0.76,0.26-1.44,0.74-2.2,1.01c-0.56,0.2-1.17,0.25-1.77,0.32
		C-189.29,41.43-191.2,41.65-193.05,41.87z M-192.92,38.52c1.5,0.07,2.94-0.19,4.28-0.89c0.84-0.44,1.71-0.83,2.5-1.35
		c2.05-1.35,3.58-3.24,4.65-5.39c0.99-1.99,1.38-4.2,1.4-6.44c0-0.37-0.17-0.89-0.44-1.1c-0.72-0.54-1.5-1.07-2.34-1.37
		c-0.89-0.31-1.32-0.95-1.8-1.66c-0.54-0.8-1.12-1.59-1.8-2.26c-0.71-0.69-1.53-1.3-2.39-1.8c-0.54-0.32-1.22-0.4-1.84-0.56
		c-0.22-0.06-0.45-0.05-0.68-0.07c-1.46-0.15-2.95-0.33-4.31,0.31c-0.92,0.43-1.72,1.1-2.55,1.7c-0.42,0.31-0.89,0.63-1.16,1.05
		c-0.96,1.51-2.45,2.64-3.03,4.43c-0.35,1.09-1.01,2.07-0.79,3.3c0.06,0.34,0.05,0.75-0.1,1.05c-0.32,0.65-0.36,1.22,0.15,1.78
		c0.1,0.11,0.1,0.3,0.18,0.44c0.59,1.02,1.14,2.08,1.81,3.05c0.57,0.83,1.36,1.5,1.93,2.33C-197.73,37.33-195.74,38.66-192.92,38.52
		z"/>
	<path d="M-179.63,12.58c-1.54-0.02-2.49-0.76-2.47-1.91c0.02-1.23,1.4-2.61,2.63-2.64c0.88-0.02,2.14,1.74,2.09,2.94
		C-177.4,11.84-178.47,12.6-179.63,12.58z"/>
</g>
</svg>
